<svg xmlns="http://www.w3.org/2000/svg" width="0" height="0" style="position:absolute">
  <symbol id="sela-mark" viewBox="0 0 100 100">
    <title>Sela</title>
    <path d="M62 24C42 12 20 24 20 44c0 15 13 22 27 22"
          fill="none" stroke="#10B5A6" stroke-width="15" stroke-linecap="round"/>
    <path d="M38 76c20 12 42 0 42-20 0-15-13-22-27-22"
          fill="none" stroke="#10B5A6" stroke-width="15" stroke-linecap="round"/>
    <path d="M50 16v24l-8 9 16 8-8 9v24"
          fill="none" stroke="#FFFFFF" stroke-width="11" stroke-linecap="round" stroke-linejoin="round"/>
    <path d="M50 16v24l-8 9 16 8-8 9v24"
          fill="none" stroke="#1F2937" stroke-width="4.5" stroke-linecap="round" stroke-linejoin="round"/>
  </symbol>

  <symbol id="sela-mark-simple" viewBox="0 0 100 100">
    <title>Sela</title>
    <path d="M62 24C42 12 20 24 20 44c0 15 13 22 27 22"
          fill="none" stroke="#10B5A6" stroke-width="17" stroke-linecap="round"/>
    <path d="M38 76c20 12 42 0 42-20 0-15-13-22-27-22"
          fill="none" stroke="#10B5A6" stroke-width="17" stroke-linecap="round"/>
  </symbol>
</svg>
